<svg width="340" height="83" viewBox="0 0 340 83" fill="none" xmlns="http://www.w3.org/2000/svg">
<rect width="340" height="5" transform="matrix(1 0 0 -1 0 82.1729)" fill="#0047BB"/>
<rect width="340" height="5" transform="matrix(1 0 0 -1 0 5.17285)" fill="#0047BB"/>
<g filter="url(#filter0_d)">
<path d="M60.6377 54.6445C58.4215 54.6445 56.3477 54.3675 54.416 53.8135C52.4993 53.2594 50.6351 52.3385 48.8232 51.0508V43.5264H53.2031L53.9219 48.3779C54.7005 48.9619 55.6738 49.4261 56.8418 49.7705C58.0247 50.1149 59.29 50.2871 60.6377 50.2871C62.6143 50.2871 64.1341 49.8678 65.1973 49.0293C66.2604 48.1908 66.792 47.0677 66.792 45.6602C66.792 44.3574 66.2979 43.2718 65.3096 42.4033C64.3363 41.5199 62.6068 40.7412 60.1211 40.0674C56.4525 39.0791 53.6898 37.8063 51.833 36.249C49.9762 34.6917 49.0479 32.6253 49.0479 30.0498C49.0479 28.2979 49.5195 26.748 50.4629 25.4004C51.4212 24.0527 52.7464 22.9896 54.4385 22.2109C56.1305 21.4323 58.0846 21.0355 60.3008 21.0205C62.7266 20.9906 64.8678 21.305 66.7246 21.9639C68.5964 22.6227 70.1761 23.4837 71.4639 24.5469V31.5771H67.1738L66.3652 26.9951C65.7513 26.5609 64.9502 26.194 63.9619 25.8945C62.9886 25.5801 61.8356 25.4229 60.5029 25.4229C58.7959 25.4229 57.4033 25.8346 56.3252 26.6582C55.2471 27.4668 54.708 28.5824 54.708 30.0049C54.708 31.2327 55.2096 32.2435 56.2129 33.0371C57.2311 33.8307 59.0505 34.6019 61.6709 35.3506C65.2048 36.2939 67.8851 37.5967 69.7119 39.2588C71.5537 40.9059 72.4746 43.0247 72.4746 45.6152C72.4746 47.4421 71.9805 49.0293 70.9922 50.377C70.0189 51.7246 68.6413 52.7728 66.8594 53.5215C65.0924 54.2702 63.0186 54.6445 60.6377 54.6445ZM84.7607 54.5996C82.6943 54.5996 81.0846 54.0231 79.9316 52.8701C78.7786 51.7021 78.2021 49.8454 78.2021 47.2998V33.9131H74.6533V29.8701H78.2021V23.9629H83.8398V29.8701H88.6465V33.9131H83.8398V47.2998C83.8398 48.333 84.0495 49.0817 84.4688 49.5459C84.903 50.0101 85.487 50.2422 86.2207 50.2422C86.64 50.2422 87.1042 50.2122 87.6133 50.1523C88.1374 50.0775 88.5641 50.0026 88.8936 49.9277L89.4551 53.9033C88.8112 54.098 88.0625 54.2627 87.209 54.3975C86.3555 54.5322 85.5394 54.5996 84.7607 54.5996ZM102.887 54.6445C100.551 54.6445 98.5443 54.1204 96.8672 53.0723C95.1901 52.0091 93.9023 50.5492 93.0039 48.6924C92.1055 46.8356 91.6562 44.6943 91.6562 42.2686V41.7969C91.6562 39.3861 92.1055 37.2523 93.0039 35.3955C93.9023 33.5387 95.1901 32.0788 96.8672 31.0156C98.5443 29.9525 100.536 29.4209 102.842 29.4209C105.178 29.4209 107.184 29.9525 108.861 31.0156C110.538 32.0638 111.826 33.5238 112.725 35.3955C113.623 37.2523 114.072 39.3861 114.072 41.7969V42.2686C114.072 44.7093 113.623 46.8581 112.725 48.7148C111.826 50.5716 110.538 52.0241 108.861 53.0723C107.199 54.1204 105.208 54.6445 102.887 54.6445ZM102.887 50.2871C104.758 50.2871 106.151 49.5459 107.064 48.0635C107.978 46.5661 108.435 44.6344 108.435 42.2686V41.7969C108.435 39.4759 107.97 37.5667 107.042 36.0693C106.129 34.557 104.729 33.8008 102.842 33.8008C100.97 33.8008 99.5775 34.557 98.6641 36.0693C97.7656 37.5667 97.3164 39.4759 97.3164 41.7969V42.2686C97.3164 44.6344 97.7656 46.5661 98.6641 48.0635C99.5775 49.5459 100.985 50.2871 102.887 50.2871ZM128.941 54.6445C126.665 54.6445 124.689 54.1279 123.012 53.0947C121.35 52.0465 120.062 50.609 119.148 48.7822C118.25 46.9404 117.801 44.8216 117.801 42.4258V41.6396C117.801 39.2887 118.25 37.1924 119.148 35.3506C120.047 33.5088 121.327 32.0638 122.989 31.0156C124.666 29.9525 126.643 29.4209 128.919 29.4209C131 29.4209 132.812 29.7578 134.354 30.4316C135.897 31.0905 137.162 31.9141 138.15 32.9023L138.173 39.3936H133.86L133.029 35.1035C132.61 34.6693 132.078 34.3249 131.435 34.0703C130.791 33.8008 130.087 33.666 129.323 33.666C127.451 33.666 126.007 34.4072 124.988 35.8896C123.97 37.3571 123.461 39.2738 123.461 41.6396V42.4258C123.461 45.0013 123.97 46.9554 124.988 48.2881C126.021 49.6208 127.347 50.2871 128.964 50.2871C130.252 50.2871 131.307 49.9352 132.131 49.2314C132.954 48.5277 133.493 47.5544 133.748 46.3115H138.645L138.712 46.4463C138.442 48.8271 137.521 50.7887 135.949 52.3311C134.392 53.8734 132.056 54.6445 128.941 54.6445ZM141.564 54.1729V50.7139L144.956 50.04V23.2891L141.362 22.6152V19.1338H150.594V40.8984L158.096 33.7559L158.163 33.666L155.625 33.3291V29.8701H167.35V33.3516L164.228 34.0703L157.804 40.0898L165.53 50.0625L168.765 50.7139V54.1729H157.085V50.8262L159.219 50.4443L159.151 50.3545L154.053 43.6162L150.594 46.873V50.04L153.761 50.7139V54.1729H141.564ZM182.488 54.1729V50.7139L186.06 50.04V25.625L182.488 24.9512V21.4697H197.829C200.255 21.4697 202.336 21.8965 204.073 22.75C205.825 23.6035 207.165 24.7939 208.094 26.3213C209.037 27.8486 209.509 29.623 209.509 31.6445C209.509 34.6992 208.468 37.1549 206.387 39.0117C204.32 40.8535 201.468 41.7744 197.829 41.7744H191.72V50.04L195.291 50.7139V54.1729H182.488ZM191.72 37.3945H197.829C199.821 37.3945 201.318 36.8555 202.321 35.7773C203.34 34.6992 203.849 33.3366 203.849 31.6895C203.849 30.0124 203.34 28.6198 202.321 27.5117C201.318 26.4036 199.821 25.8496 197.829 25.8496H191.72V37.3945ZM212.316 54.1729V50.7139L215.663 50.04V34.0254L212.114 33.3516V29.8701H220.874L221.166 32.9248L221.211 33.4189C222.514 30.7536 224.4 29.4209 226.871 29.4209C227.799 29.4209 228.631 29.5407 229.364 29.7803L228.713 35.0137L225.546 34.834C224.513 34.7741 223.659 34.9762 222.985 35.4404C222.312 35.9046 221.757 36.5485 221.323 37.3721V50.04L224.692 50.7139V54.1729H212.316ZM231.678 54.1729V50.7139L235.047 50.04V34.0254L231.476 33.3516V29.8701H240.707V50.04L244.054 50.7139V54.1729H231.678ZM234.822 24.3672V19.1338H240.707V24.3672H234.822ZM257.867 54.6445C255.591 54.6445 253.615 54.1279 251.938 53.0947C250.275 52.0465 248.988 50.609 248.074 48.7822C247.176 46.9404 246.727 44.8216 246.727 42.4258V41.6396C246.727 39.2887 247.176 37.1924 248.074 35.3506C248.973 33.5088 250.253 32.0638 251.915 31.0156C253.592 29.9525 255.569 29.4209 257.845 29.4209C259.926 29.4209 261.738 29.7578 263.28 30.4316C264.823 31.0905 266.088 31.9141 267.076 32.9023L267.099 39.3936H262.786L261.955 35.1035C261.536 34.6693 261.004 34.3249 260.36 34.0703C259.716 33.8008 259.013 33.666 258.249 33.666C256.377 33.666 254.932 34.4072 253.914 35.8896C252.896 37.3571 252.387 39.2738 252.387 41.6396V42.4258C252.387 45.0013 252.896 46.9554 253.914 48.2881C254.947 49.6208 256.272 50.2871 257.89 50.2871C259.177 50.2871 260.233 49.9352 261.057 49.2314C261.88 48.5277 262.419 47.5544 262.674 46.3115H267.57L267.638 46.4463C267.368 48.8271 266.447 50.7887 264.875 52.3311C263.318 53.8734 260.982 54.6445 257.867 54.6445ZM282.417 54.6445C280.111 54.6445 278.112 54.1354 276.42 53.1172C274.728 52.084 273.41 50.6615 272.467 48.8496C271.538 47.0378 271.074 44.9639 271.074 42.6279V41.6846C271.074 39.3187 271.531 37.2148 272.444 35.373C273.373 33.5163 274.638 32.0638 276.24 31.0156C277.857 29.9525 279.707 29.4209 281.788 29.4209C285.067 29.4209 287.561 30.3942 289.268 32.3408C290.99 34.2874 291.851 36.9603 291.851 40.3594V43.5938H276.937L276.892 43.7061C276.981 45.6227 277.535 47.2025 278.554 48.4453C279.572 49.6732 281.024 50.2871 282.911 50.2871C284.229 50.2871 285.427 50.1074 286.505 49.748C287.583 49.3887 288.586 48.8796 289.515 48.2207L291.267 51.7695C290.308 52.5931 289.088 53.2819 287.605 53.8359C286.138 54.375 284.409 54.6445 282.417 54.6445ZM277.026 39.6182H286.438V39.0342C286.438 37.4469 286.063 36.1592 285.314 35.1709C284.581 34.1826 283.428 33.6885 281.855 33.6885C280.478 33.6885 279.362 34.2425 278.509 35.3506C277.67 36.4587 277.154 37.8438 276.959 39.5059L277.026 39.6182Z" fill="#F4EDE8"/>
<path d="M54.416 53.8135L54.1383 54.7741L54.1403 54.7747L54.416 53.8135ZM48.8232 51.0508H47.8232V51.5669L48.2439 51.8659L48.8232 51.0508ZM48.8232 43.5264V42.5264H47.8232V43.5264H48.8232ZM53.2031 43.5264L54.1923 43.3798L54.0659 42.5264H53.2031V43.5264ZM53.9219 48.3779L52.9327 48.5245L52.9929 48.9312L53.3219 49.1779L53.9219 48.3779ZM56.8418 49.7705L56.559 50.7297L56.5623 50.7306L56.8418 49.7705ZM65.1973 49.0293L64.578 48.2441L65.1973 49.0293ZM65.3096 42.4033L64.6375 43.1438L64.6434 43.1492L64.6495 43.1545L65.3096 42.4033ZM60.1211 40.0674L60.3827 39.1022L60.3812 39.1018L60.1211 40.0674ZM51.833 36.249L51.1904 37.0152L51.833 36.249ZM50.4629 25.4004L49.6479 24.8209L49.6437 24.8269L50.4629 25.4004ZM60.3008 21.0205L60.3075 22.0205L60.3131 22.0204L60.3008 21.0205ZM66.7246 21.9639L66.3902 22.9063L66.3926 22.9071L66.7246 21.9639ZM71.4639 24.5469H72.4639V24.0757L72.1005 23.7757L71.4639 24.5469ZM71.4639 31.5771V32.5771H72.4639V31.5771H71.4639ZM67.1738 31.5771L66.189 31.7509L66.3348 32.5771H67.1738V31.5771ZM66.3652 26.9951L67.35 26.8213L67.2785 26.4162L66.9427 26.1787L66.3652 26.9951ZM63.9619 25.8945L63.6545 26.8461L63.6632 26.8489L63.6719 26.8516L63.9619 25.8945ZM56.3252 26.6582L56.9252 27.4582L56.9322 27.4529L56.3252 26.6582ZM56.2129 33.0371L55.5925 33.8214L55.5981 33.8258L56.2129 33.0371ZM61.6709 35.3506L61.3962 36.3121L61.4046 36.3145L61.413 36.3168L61.6709 35.3506ZM69.7119 39.2588L69.0389 39.9985L69.0453 40.0042L69.7119 39.2588ZM70.9922 50.377L70.1858 49.7856L70.1815 49.7915L70.9922 50.377ZM66.8594 53.5215L66.472 52.5996L66.4692 52.6007L66.8594 53.5215ZM60.6377 53.6445C58.5053 53.6445 56.525 53.3781 54.6917 52.8522L54.1403 54.7747C56.1703 55.357 58.3378 55.6445 60.6377 55.6445V53.6445ZM54.6937 52.8528C52.8966 52.3333 51.1332 51.4657 49.4026 50.2357L48.2439 51.8659C50.137 53.2114 52.102 54.1855 54.1383 54.7741L54.6937 52.8528ZM49.8232 51.0508V43.5264H47.8232V51.0508H49.8232ZM48.8232 44.5264H53.2031V42.5264H48.8232V44.5264ZM52.2139 43.6729L52.9327 48.5245L54.9111 48.2314L54.1923 43.3798L52.2139 43.6729ZM53.3219 49.1779C54.2165 49.8489 55.3042 50.3597 56.559 50.7297L57.1246 48.8113C56.0434 48.4925 55.1846 48.0749 54.5219 47.5779L53.3219 49.1779ZM56.5623 50.7306C57.8441 51.1038 59.2042 51.2871 60.6377 51.2871V49.2871C59.3758 49.2871 58.2054 49.126 57.1213 48.8104L56.5623 50.7306ZM60.6377 51.2871C62.7391 51.2871 64.512 50.8434 65.8166 49.8145L64.578 48.2441C63.7563 48.8922 62.4894 49.2871 60.6377 49.2871V51.2871ZM65.8166 49.8145C67.1309 48.7778 67.792 47.3599 67.792 45.6602H65.792C65.792 46.7756 65.3899 47.6038 64.578 48.2441L65.8166 49.8145ZM67.792 45.6602C67.792 44.0665 67.1716 42.7083 65.9697 41.6522L64.6495 43.1545C65.4242 43.8353 65.792 44.6483 65.792 45.6602H67.792ZM65.9817 41.6629C64.8251 40.613 62.9015 39.785 60.3827 39.1022L59.8595 41.0325C62.3121 41.6974 63.8475 42.4267 64.6375 43.1438L65.9817 41.6629ZM60.3812 39.1018C56.7816 38.1321 54.1755 36.9086 52.4756 35.4828L51.1904 37.0152C53.204 38.7041 56.1233 40.0261 59.861 41.033L60.3812 39.1018ZM52.4756 35.4828C50.8611 34.1288 50.0479 32.3509 50.0479 30.0498H48.0479C48.0479 32.8998 49.0913 35.2547 51.1904 37.0152L52.4756 35.4828ZM50.0479 30.0498C50.0479 28.4889 50.4643 27.1422 51.2821 25.9739L49.6437 24.8269C48.5748 26.3539 48.0479 28.1068 48.0479 30.0498H50.0479ZM51.2778 25.9799C52.1226 24.792 53.3028 23.8344 54.8565 23.1194L54.0204 21.3025C52.1901 22.1448 50.7199 23.3135 49.6479 24.8209L51.2778 25.9799ZM54.8565 23.1194C56.3974 22.4103 58.2069 22.0347 60.3075 22.0205L60.294 20.0205C57.9624 20.0363 55.8637 20.4543 54.0204 21.3025L54.8565 23.1194ZM60.3131 22.0204C62.6472 21.9916 64.6671 22.2949 66.3902 22.9063L67.059 21.0214C65.0686 20.3152 62.8059 19.9895 60.2884 20.0206L60.3131 22.0204ZM66.3926 22.9071C68.1738 23.5341 69.6454 24.3423 70.8272 25.318L72.1005 23.7757C70.7068 22.6251 69.0189 21.7113 67.0566 21.0206L66.3926 22.9071ZM70.4639 24.5469V31.5771H72.4639V24.5469H70.4639ZM71.4639 30.5771H67.1738V32.5771H71.4639V30.5771ZM68.1586 31.4034L67.35 26.8213L65.3805 27.1689L66.189 31.7509L68.1586 31.4034ZM66.9427 26.1787C66.2152 25.6641 65.3074 25.2574 64.2519 24.9375L63.6719 26.8516C64.593 27.1307 65.2874 27.4576 65.7878 27.8115L66.9427 26.1787ZM64.2693 24.943C63.1719 24.5884 61.9102 24.4229 60.5029 24.4229V26.4229C61.761 26.4229 62.8054 26.5718 63.6545 26.8461L64.2693 24.943ZM60.5029 24.4229C58.634 24.4229 57.0114 24.8756 55.7182 25.8635L56.9322 27.4529C57.7953 26.7936 58.9578 26.4229 60.5029 26.4229V24.4229ZM55.7252 25.8582C54.3794 26.8676 53.708 28.288 53.708 30.0049H55.708C55.708 28.8767 56.1148 28.066 56.9252 27.4582L55.7252 25.8582ZM53.708 30.0049C53.708 31.553 54.3611 32.8473 55.5925 33.8214L56.8333 32.2528C56.0582 31.6397 55.708 30.9125 55.708 30.0049H53.708ZM55.5981 33.8258C56.7785 34.7458 58.7589 35.5586 61.3962 36.3121L61.9456 34.3891C59.342 33.6452 57.6837 32.9156 56.8276 32.2484L55.5981 33.8258ZM61.413 36.3168C64.8609 37.2372 67.3736 38.4832 69.0389 39.9985L70.3849 38.5191C68.3966 36.7101 65.5486 35.3507 61.9288 34.3844L61.413 36.3168ZM69.0453 40.0042C70.6636 41.4514 71.4746 43.2937 71.4746 45.6152H73.4746C73.4746 42.7558 72.4438 40.3604 70.3785 38.5134L69.0453 40.0042ZM71.4746 45.6152C71.4746 47.2503 71.0365 48.6256 70.1858 49.7856L71.7986 50.9683C72.9245 49.433 73.4746 47.6339 73.4746 45.6152H71.4746ZM70.1815 49.7915C69.3322 50.9674 68.1126 51.9102 66.472 52.5996L67.2467 54.4434C69.17 53.6353 70.7055 52.4818 71.8029 50.9624L70.1815 49.7915ZM66.4692 52.6007C64.8516 53.2862 62.9158 53.6445 60.6377 53.6445V55.6445C63.1213 55.6445 65.3333 55.2542 67.2495 54.4422L66.4692 52.6007ZM79.9316 52.8701L79.22 53.5727L79.2245 53.5772L79.9316 52.8701ZM78.2021 33.9131H79.2021V32.9131H78.2021V33.9131ZM74.6533 33.9131H73.6533V34.9131H74.6533V33.9131ZM74.6533 29.8701V28.8701H73.6533V29.8701H74.6533ZM78.2021 29.8701V30.8701H79.2021V29.8701H78.2021ZM78.2021 23.9629V22.9629H77.2021V23.9629H78.2021ZM83.8398 23.9629H84.8398V22.9629H83.8398V23.9629ZM83.8398 29.8701H82.8398V30.8701H83.8398V29.8701ZM88.6465 29.8701H89.6465V28.8701H88.6465V29.8701ZM88.6465 33.9131V34.9131H89.6465V33.9131H88.6465ZM83.8398 33.9131V32.9131H82.8398V33.9131H83.8398ZM84.4688 49.5459L83.7266 50.2162L83.7325 50.2227L83.7385 50.2291L84.4688 49.5459ZM87.6133 50.1523L87.7301 51.1455L87.7424 51.144L87.7547 51.1423L87.6133 50.1523ZM88.8936 49.9277L89.8837 49.7879L89.7317 48.7117L88.6719 48.9526L88.8936 49.9277ZM89.4551 53.9033L89.7445 54.8605L90.5652 54.6124L90.4453 53.7635L89.4551 53.9033ZM84.7607 53.5996C82.885 53.5996 81.5574 53.0816 80.6387 52.163L79.2245 53.5772C80.6119 54.9646 82.5037 55.5996 84.7607 55.5996V53.5996ZM80.6433 52.1676C79.7548 51.2676 79.2021 49.7234 79.2021 47.2998H77.2021C77.2021 49.9674 77.8025 52.1367 79.22 53.5726L80.6433 52.1676ZM79.2021 47.2998V33.9131H77.2021V47.2998H79.2021ZM78.2021 32.9131H74.6533V34.9131H78.2021V32.9131ZM75.6533 33.9131V29.8701H73.6533V33.9131H75.6533ZM74.6533 30.8701H78.2021V28.8701H74.6533V30.8701ZM79.2021 29.8701V23.9629H77.2021V29.8701H79.2021ZM78.2021 24.9629H83.8398V22.9629H78.2021V24.9629ZM82.8398 23.9629V29.8701H84.8398V23.9629H82.8398ZM83.8398 30.8701H88.6465V28.8701H83.8398V30.8701ZM87.6465 29.8701V33.9131H89.6465V29.8701H87.6465ZM88.6465 32.9131H83.8398V34.9131H88.6465V32.9131ZM82.8398 33.9131V47.2998H84.8398V33.9131H82.8398ZM82.8398 47.2998C82.8398 48.4297 83.0623 49.4806 83.7266 50.2162L85.2109 48.8756C85.0367 48.6828 84.8398 48.2363 84.8398 47.2998H82.8398ZM83.7385 50.2291C84.3915 50.9272 85.257 51.2422 86.2207 51.2422V49.2422C85.717 49.2422 85.4144 49.093 85.199 48.8627L83.7385 50.2291ZM86.2207 51.2422C86.6865 51.2422 87.1904 51.209 87.7301 51.1455L87.4964 49.1592C87.0179 49.2155 86.5935 49.2422 86.2207 49.2422V51.2422ZM87.7547 51.1423C88.2925 51.0655 88.7488 50.9861 89.1152 50.9029L88.6719 48.9526C88.3795 49.0191 87.9823 49.0895 87.4719 49.1624L87.7547 51.1423ZM87.9034 50.0676L88.4649 54.0432L90.4453 53.7635L89.8837 49.7879L87.9034 50.0676ZM89.1657 52.9461C88.5758 53.1245 87.8734 53.2802 87.053 53.4097L87.3649 55.3852C88.2516 55.2452 89.0466 55.0715 89.7445 54.8605L89.1657 52.9461ZM87.053 53.4097C86.2456 53.5372 85.4818 53.5996 84.7607 53.5996V55.5996C85.5969 55.5996 86.4654 55.5273 87.3649 55.3852L87.053 53.4097ZM96.8672 53.0723L96.3318 53.9169L96.3372 53.9203L96.8672 53.0723ZM93.0039 48.6924L92.1037 49.1279L93.0039 48.6924ZM96.8672 31.0156L96.3318 30.171L96.8672 31.0156ZM108.861 31.0156L108.326 31.8602L108.331 31.8636L108.861 31.0156ZM112.725 35.3955L111.823 35.8282L111.824 35.8311L112.725 35.3955ZM108.861 53.0723L108.331 52.2243L108.328 52.2264L108.861 53.0723ZM107.064 48.0635L107.916 48.5881L107.918 48.5842L107.064 48.0635ZM107.042 36.0693L106.186 36.5864L106.192 36.5963L107.042 36.0693ZM98.6641 36.0693L97.8081 35.5523L97.8066 35.5548L98.6641 36.0693ZM98.6641 48.0635L97.8065 48.578L97.8127 48.5881L98.6641 48.0635ZM102.887 53.6445C100.704 53.6445 98.8885 53.1563 97.3972 52.2243L96.3372 53.9203C98.2001 55.0846 100.398 55.6445 102.887 55.6445V53.6445ZM97.4026 52.2277C95.8891 51.2682 94.7247 49.9528 93.9041 48.2568L92.1037 49.1279C93.08 51.1455 94.4911 52.75 96.3318 53.9169L97.4026 52.2277ZM93.9041 48.2568C93.0819 46.5578 92.6562 44.5699 92.6562 42.2686H90.6562C90.6562 44.8188 91.129 47.1135 92.1037 49.1279L93.9041 48.2568ZM92.6562 42.2686V41.7969H90.6562V42.2686H92.6562ZM92.6562 41.7969C92.6562 39.5116 93.0815 37.5309 93.9041 35.8311L92.1037 34.9599C91.1294 36.9736 90.6562 39.2606 90.6562 41.7969H92.6562ZM93.9041 35.8311C94.7247 34.1351 95.8891 32.8197 97.4026 31.8602L96.3318 30.171C94.4911 31.3379 93.08 32.9424 92.1037 34.9599L93.9041 35.8311ZM97.4026 31.8602C98.8951 30.9141 100.694 30.4209 102.842 30.4209V28.4209C100.377 28.4209 98.1934 28.9909 96.3318 30.171L97.4026 31.8602ZM102.842 30.4209C105.022 30.4209 106.835 30.9153 108.326 31.8602L109.397 30.171C107.533 28.9896 105.333 28.4209 102.842 28.4209V30.4209ZM108.331 31.8636C109.84 32.8062 111.002 34.1184 111.823 35.8282L113.626 34.9628C112.65 32.9291 111.237 31.3214 109.391 30.1676L108.331 31.8636ZM111.824 35.8311C112.647 37.5309 113.072 39.5116 113.072 41.7969H115.072C115.072 39.2606 114.599 36.9736 113.625 34.9599L111.824 35.8311ZM113.072 41.7969V42.2686H115.072V41.7969H113.072ZM113.072 42.2686C113.072 44.5859 112.646 46.581 111.824 48.2793L113.625 49.1504C114.6 47.1351 115.072 44.8327 115.072 42.2686H113.072ZM111.824 48.2793C111.004 49.9741 109.842 51.2804 108.331 52.2243L109.391 53.9203C111.235 52.7678 112.648 51.1691 113.625 49.1504L111.824 48.2793ZM108.328 52.2264C106.852 53.1569 105.054 53.6445 102.887 53.6445V55.6445C105.362 55.6445 107.546 55.084 109.395 53.9181L108.328 52.2264ZM102.887 51.2871C105.074 51.2871 106.804 50.3917 107.916 48.5881L106.213 47.5389C105.498 48.7001 104.443 49.2871 102.887 49.2871V51.2871ZM107.918 48.5842C108.955 46.8844 109.435 44.7561 109.435 42.2686H107.435C107.435 44.5127 107.001 46.2478 106.211 47.5427L107.918 48.5842ZM109.435 42.2686V41.7969H107.435V42.2686H109.435ZM109.435 41.7969C109.435 39.3475 108.945 37.2408 107.892 35.5424L106.192 36.5963C106.996 37.8926 107.435 39.6044 107.435 41.7969H109.435ZM107.898 35.5523C106.789 33.7163 105.05 32.8008 102.842 32.8008V34.8008C104.407 34.8008 105.468 35.3976 106.186 36.5863L107.898 35.5523ZM102.842 32.8008C100.645 32.8008 98.9152 33.7192 97.8081 35.5523L99.5201 36.5863C100.24 35.3948 101.295 34.8008 102.842 34.8008V32.8008ZM97.8066 35.5548C96.789 37.2508 96.3164 39.3526 96.3164 41.7969H98.3164C98.3164 39.5992 98.7422 37.8827 99.5216 36.5838L97.8066 35.5548ZM96.3164 41.7969V42.2686H98.3164V41.7969H96.3164ZM96.3164 42.2686C96.3164 44.7536 96.7874 46.8794 97.8066 48.578L99.5216 47.549C98.7438 46.2527 98.3164 44.5152 98.3164 42.2686H96.3164ZM97.8127 48.5881C98.9274 50.3972 100.676 51.2871 102.887 51.2871V49.2871C101.294 49.2871 100.228 48.6946 99.5154 47.5389L97.8127 48.5881ZM123.012 53.0947L122.478 53.9406L122.487 53.9461L123.012 53.0947ZM119.148 48.7822L118.25 49.2207L118.254 49.2294L119.148 48.7822ZM122.989 31.0156L123.523 31.8615L123.525 31.8602L122.989 31.0156ZM134.354 30.4316L133.954 31.348L133.962 31.3512L134.354 30.4316ZM138.15 32.9023L139.15 32.8989L139.149 32.4867L138.857 32.1952L138.15 32.9023ZM138.173 39.3936V40.3936H139.176L139.173 39.3901L138.173 39.3936ZM133.86 39.3936L132.879 39.5837L133.035 40.3936H133.86V39.3936ZM133.029 35.1035L134.011 34.9133L133.955 34.6222L133.749 34.4089L133.029 35.1035ZM131.435 34.0703L131.048 34.9928L131.058 34.9966L131.067 35.0003L131.435 34.0703ZM124.988 35.8896L125.81 36.4597L125.813 36.4558L124.988 35.8896ZM124.988 48.2881L124.194 48.8952L124.198 48.9008L124.988 48.2881ZM133.748 46.3115V45.3115H132.932L132.768 46.1109L133.748 46.3115ZM138.645 46.3115L139.539 45.8643L139.263 45.3115H138.645V46.3115ZM138.712 46.4463L139.706 46.5588L139.739 46.2642L139.606 45.9991L138.712 46.4463ZM135.949 52.3311L135.249 51.6172L135.246 51.6205L135.949 52.3311ZM128.941 53.6445C126.821 53.6445 125.032 53.1651 123.536 52.2433L122.487 53.9461C124.345 55.0908 126.509 55.6445 128.941 55.6445V53.6445ZM123.545 52.2489C122.044 51.3021 120.878 50.0052 120.043 48.335L118.254 49.2294C119.246 51.2129 120.655 52.791 122.478 53.9406L123.545 52.2489ZM120.047 48.3438C119.226 46.6598 118.801 44.6953 118.801 42.4258H116.801C116.801 44.948 117.274 47.221 118.25 49.2206L120.047 48.3438ZM118.801 42.4258V41.6396H116.801V42.4258H118.801ZM118.801 41.6396C118.801 39.4183 119.225 37.4755 120.047 35.789L118.25 34.9122C117.275 36.9093 116.801 39.1592 116.801 41.6396H118.801ZM120.047 35.789C120.868 34.1068 122.025 32.8061 123.523 31.8615L122.456 30.1698C120.63 31.3215 119.226 32.9107 118.25 34.9122L120.047 35.789ZM123.525 31.8602C125.019 30.9128 126.804 30.4209 128.919 30.4209V28.4209C126.482 28.4209 124.313 28.9922 122.454 30.171L123.525 31.8602ZM128.919 30.4209C130.894 30.4209 132.564 30.7408 133.954 31.348L134.755 29.5153C133.06 28.7749 131.106 28.4209 128.919 28.4209V30.4209ZM133.962 31.3512C135.41 31.9698 136.561 32.7275 137.443 33.6095L138.857 32.1952C137.763 31.1006 136.384 30.2112 134.747 29.512L133.962 31.3512ZM137.15 32.9058L137.173 39.397L139.173 39.3901L139.15 32.8989L137.15 32.9058ZM138.173 38.3936H133.86V40.3936H138.173V38.3936ZM134.842 39.2034L134.011 34.9133L132.048 35.2937L132.879 39.5837L134.842 39.2034ZM133.749 34.4089C133.217 33.858 132.559 33.4397 131.802 33.1404L131.067 35.0003C131.598 35.2101 132.003 35.4806 132.31 35.7981L133.749 34.4089ZM131.821 33.1479C131.043 32.8225 130.207 32.666 129.323 32.666V34.666C129.967 34.666 130.538 34.779 131.048 34.9928L131.821 33.1479ZM129.323 32.666C127.138 32.666 125.378 33.5566 124.164 35.3235L125.813 36.4558C126.635 35.2579 127.765 34.666 129.323 34.666V32.666ZM124.167 35.3196C123 37.001 122.461 39.1353 122.461 41.6396H124.461C124.461 39.4123 124.94 37.7132 125.81 36.4597L124.167 35.3196ZM122.461 41.6396V42.4258H124.461V41.6396H122.461ZM122.461 42.4258C122.461 45.1098 122.988 47.3168 124.194 48.8952L125.783 47.681C124.952 46.594 124.461 44.8928 124.461 42.4258H122.461ZM124.198 48.9008C125.411 50.4656 127.022 51.2871 128.964 51.2871V49.2871C127.671 49.2871 126.632 48.7759 125.779 47.6754L124.198 48.9008ZM128.964 51.2871C130.443 51.2871 131.743 50.8783 132.781 49.9917L131.481 48.4712C130.872 48.9921 130.061 49.2871 128.964 49.2871V51.2871ZM132.781 49.9917C133.801 49.1195 134.436 47.9342 134.728 46.5122L132.768 46.1109C132.551 47.1745 132.108 47.9358 131.481 48.4712L132.781 49.9917ZM133.748 47.3115H138.645V45.3115H133.748V47.3115ZM137.75 46.7587L137.817 46.8935L139.606 45.9991L139.539 45.8643L137.75 46.7587ZM137.718 46.3338C137.472 48.5079 136.642 50.2502 135.249 51.6172L136.649 53.0449C138.4 51.3273 139.413 49.1464 139.706 46.5588L137.718 46.3338ZM135.246 51.6205C133.942 52.9113 131.904 53.6445 128.941 53.6445V55.6445C132.208 55.6445 134.842 54.8354 136.653 53.0416L135.246 51.6205ZM141.564 54.1729H140.564V55.1729H141.564V54.1729ZM141.564 50.7139L141.37 49.733L140.564 49.893V50.7139H141.564ZM144.956 50.04L145.151 51.0209L145.956 50.8609V50.04H144.956ZM144.956 23.2891H145.956V22.4591L145.14 22.3062L144.956 23.2891ZM141.362 22.6152H140.362V23.4452L141.178 23.5981L141.362 22.6152ZM141.362 19.1338V18.1338H140.362V19.1338H141.362ZM150.594 19.1338H151.594V18.1338H150.594V19.1338ZM150.594 40.8984H149.594V43.2313L151.283 41.6227L150.594 40.8984ZM158.096 33.7559L158.785 34.4801L158.846 34.4226L158.896 34.3559L158.096 33.7559ZM158.163 33.666L158.963 34.266L159.988 32.8995L158.295 32.6747L158.163 33.666ZM155.625 33.3291H154.625V34.2051L155.493 34.3204L155.625 33.3291ZM155.625 29.8701V28.8701H154.625V29.8701H155.625ZM167.35 29.8701H168.35V28.8701H167.35V29.8701ZM167.35 33.3516L167.574 34.3261L168.35 34.1475V33.3516H167.35ZM164.228 34.0703L164.003 33.0958L163.74 33.1563L163.544 33.3406L164.228 34.0703ZM157.804 40.0898L157.12 39.3601L156.456 39.9826L157.013 40.7023L157.804 40.0898ZM165.53 50.0625L164.74 50.675L164.968 50.9693L165.333 51.0428L165.53 50.0625ZM168.765 50.7139H169.765V49.8952L168.962 49.7336L168.765 50.7139ZM168.765 54.1729V55.1729H169.765V54.1729H168.765ZM157.085 54.1729H156.085V55.1729H157.085V54.1729ZM157.085 50.8262L156.909 49.8418L156.085 49.9892V50.8262H157.085ZM159.219 50.4443L159.395 51.4287L160.993 51.1428L160.019 49.8443L159.219 50.4443ZM159.151 50.3545L159.951 49.7545L159.949 49.7511L159.151 50.3545ZM154.053 43.6162L154.85 43.0128L154.178 42.1246L153.367 42.8881L154.053 43.6162ZM150.594 46.873L149.908 46.145L149.594 46.4411V46.873H150.594ZM150.594 50.04H149.594V50.8497L150.386 51.0181L150.594 50.04ZM153.761 50.7139H154.761V49.9042L153.969 49.7358L153.761 50.7139ZM153.761 54.1729V55.1729H154.761V54.1729H153.761ZM142.564 54.1729V50.7139H140.564V54.1729H142.564ZM141.759 51.6947L145.151 51.0209L144.761 49.0592L141.37 49.733L141.759 51.6947ZM145.956 50.04V23.2891H143.956V50.04H145.956ZM145.14 22.3062L141.547 21.6324L141.178 23.5981L144.772 24.2719L145.14 22.3062ZM142.362 22.6152V19.1338H140.362V22.6152H142.362ZM141.362 20.1338H150.594V18.1338H141.362V20.1338ZM149.594 19.1338V40.8984H151.594V19.1338H149.594ZM151.283 41.6227L158.785 34.4801L157.406 33.0316L149.904 40.1742L151.283 41.6227ZM158.896 34.3559L158.963 34.266L157.363 33.066L157.296 33.1559L158.896 34.3559ZM158.295 32.6747L155.757 32.3378L155.493 34.3204L158.031 34.6573L158.295 32.6747ZM156.625 33.3291V29.8701H154.625V33.3291H156.625ZM155.625 30.8701H167.35V28.8701H155.625V30.8701ZM166.35 29.8701V33.3516H168.35V29.8701H166.35ZM167.125 32.3771L164.003 33.0958L164.452 35.0448L167.574 34.3261L167.125 32.3771ZM163.544 33.3406L157.12 39.3601L158.487 40.8195L164.911 34.8L163.544 33.3406ZM157.013 40.7023L164.74 50.675L166.321 49.45L158.594 39.4774L157.013 40.7023ZM165.333 51.0428L168.567 51.6942L168.962 49.7336L165.728 49.0822L165.333 51.0428ZM167.765 50.7139V54.1729H169.765V50.7139H167.765ZM168.765 53.1729H157.085V55.1729H168.765V53.1729ZM158.085 54.1729V50.8262H156.085V54.1729H158.085ZM157.261 51.8105L159.395 51.4287L159.043 49.46L156.909 49.8418L157.261 51.8105ZM160.019 49.8443L159.951 49.7545L158.351 50.9545L158.419 51.0443L160.019 49.8443ZM159.949 49.7511L154.85 43.0128L153.255 44.2196L158.354 50.9579L159.949 49.7511ZM153.367 42.8881L149.908 46.145L151.279 47.6011L154.738 44.3443L153.367 42.8881ZM149.594 46.873V50.04H151.594V46.873H149.594ZM150.386 51.0181L153.553 51.692L153.969 49.7358L150.802 49.0619L150.386 51.0181ZM152.761 50.7139V54.1729H154.761V50.7139H152.761ZM153.761 53.1729H141.564V55.1729H153.761V53.1729ZM182.488 54.1729H181.488V55.1729H182.488V54.1729ZM182.488 50.7139L182.303 49.7312L181.488 49.8849V50.7139H182.488ZM186.06 50.04L186.245 51.0227L187.06 50.869V50.04H186.06ZM186.06 25.625H187.06V24.796L186.245 24.6423L186.06 25.625ZM182.488 24.9512H181.488V25.7801L182.303 25.9338L182.488 24.9512ZM182.488 21.4697V20.4697H181.488V21.4697H182.488ZM204.073 22.75L203.632 23.6475L203.635 23.649L204.073 22.75ZM208.094 26.3213L207.239 26.8407L207.243 26.8468L208.094 26.3213ZM206.387 39.0117L207.052 39.7582L207.052 39.7579L206.387 39.0117ZM191.72 41.7744V40.7744H190.72V41.7744H191.72ZM191.72 50.04H190.72V50.869L191.534 51.0227L191.72 50.04ZM195.291 50.7139H196.291V49.8849L195.476 49.7312L195.291 50.7139ZM195.291 54.1729V55.1729H196.291V54.1729H195.291ZM191.72 37.3945H190.72V38.3945H191.72V37.3945ZM202.321 35.7773L201.594 35.0907L201.589 35.0961L202.321 35.7773ZM202.321 27.5117L201.58 28.1829L201.585 28.1883L202.321 27.5117ZM191.72 25.8496V24.8496H190.72V25.8496H191.72ZM183.488 54.1729V50.7139H181.488V54.1729H183.488ZM182.674 51.6965L186.245 51.0227L185.874 49.0574L182.303 49.7312L182.674 51.6965ZM187.06 50.04V25.625H185.06V50.04H187.06ZM186.245 24.6423L182.674 23.9685L182.303 25.9338L185.874 26.6077L186.245 24.6423ZM183.488 24.9512V21.4697H181.488V24.9512H183.488ZM182.488 22.4697H197.829V20.4697H182.488V22.4697ZM197.829 22.4697C200.14 22.4697 202.063 22.8763 203.632 23.6475L204.514 21.8525C202.61 20.9167 200.37 20.4697 197.829 20.4697V22.4697ZM203.635 23.649C205.231 24.4264 206.419 25.4919 207.239 26.8407L208.948 25.8019C207.911 24.0959 206.419 22.7806 204.511 21.851L203.635 23.649ZM207.243 26.8468C208.077 28.1969 208.509 29.7846 208.509 31.6445H210.509C210.509 29.4615 209.997 27.5003 208.945 25.7958L207.243 26.8468ZM208.509 31.6445C208.509 34.4446 207.568 36.6178 205.721 38.2655L207.052 39.7579C209.368 37.6921 210.509 34.9538 210.509 31.6445H208.509ZM205.721 38.2652C203.889 39.898 201.301 40.7744 197.829 40.7744V42.7744C201.634 42.7744 204.751 41.809 207.052 39.7582L205.721 38.2652ZM197.829 40.7744H191.72V42.7744H197.829V40.7744ZM190.72 41.7744V50.04H192.72V41.7744H190.72ZM191.534 51.0227L195.106 51.6965L195.476 49.7312L191.905 49.0574L191.534 51.0227ZM194.291 50.7139V54.1729H196.291V50.7139H194.291ZM195.291 53.1729H182.488V55.1729H195.291V53.1729ZM191.72 38.3945H197.829V36.3945H191.72V38.3945ZM197.829 38.3945C199.997 38.3945 201.801 37.8041 203.053 36.4586L201.589 35.0961C200.835 35.9068 199.645 36.3945 197.829 36.3945V38.3945ZM203.048 36.464C204.262 35.179 204.849 33.5612 204.849 31.6895H202.849C202.849 33.112 202.417 34.2194 201.594 35.0907L203.048 36.464ZM204.849 31.6895C204.849 29.7927 204.265 28.1493 203.058 26.8351L201.585 28.1883C202.414 29.0903 202.849 30.232 202.849 31.6895H204.849ZM203.063 26.8405C201.812 25.4597 200.005 24.8496 197.829 24.8496V26.8496C199.637 26.8496 200.824 27.3476 201.58 28.1829L203.063 26.8405ZM197.829 24.8496H191.72V26.8496H197.829V24.8496ZM190.72 25.8496V37.3945H192.72V25.8496H190.72ZM212.316 54.1729H211.316V55.1729H212.316V54.1729ZM212.316 50.7139L212.119 49.7335L211.316 49.8951V50.7139H212.316ZM215.663 50.04L215.86 51.0204L216.663 50.8588V50.04H215.663ZM215.663 34.0254H216.663V33.1974L215.85 33.0429L215.663 34.0254ZM212.114 33.3516H211.114V34.1796L211.928 34.334L212.114 33.3516ZM212.114 29.8701V28.8701H211.114V29.8701H212.114ZM220.874 29.8701L221.869 29.775L221.783 28.8701H220.874V29.8701ZM221.166 32.9248L222.162 32.8343L222.161 32.8297L221.166 32.9248ZM221.211 33.4189L220.215 33.5095L220.539 37.0713L222.109 33.8581L221.211 33.4189ZM229.364 29.7803L230.357 29.9038L230.458 29.0856L229.675 28.8297L229.364 29.7803ZM228.713 35.0137L228.656 36.0121L229.59 36.065L229.705 35.1372L228.713 35.0137ZM225.546 34.834L225.488 35.8323L225.489 35.8324L225.546 34.834ZM221.323 37.3721L220.439 36.9057L220.323 37.1246V37.3721H221.323ZM221.323 50.04H220.323V50.8598L221.127 51.0206L221.323 50.04ZM224.692 50.7139H225.692V49.8941L224.889 49.7333L224.692 50.7139ZM224.692 54.1729V55.1729H225.692V54.1729H224.692ZM213.316 54.1729V50.7139H211.316V54.1729H213.316ZM212.514 51.6942L215.86 51.0204L215.466 49.0597L212.119 49.7335L212.514 51.6942ZM216.663 50.04V34.0254H214.663V50.04H216.663ZM215.85 33.0429L212.301 32.3691L211.928 34.334L215.477 35.0078L215.85 33.0429ZM213.114 33.3516V29.8701H211.114V33.3516H213.114ZM212.114 30.8701H220.874V28.8701H212.114V30.8701ZM219.879 29.9653L220.171 33.02L222.161 32.8297L221.869 29.775L219.879 29.9653ZM220.17 33.0153L220.215 33.5095L222.207 33.3284L222.162 32.8343L220.17 33.0153ZM222.109 33.8581C222.707 32.6344 223.407 31.7829 224.18 31.2372C224.943 30.6985 225.827 30.4209 226.871 30.4209V28.4209C225.444 28.4209 224.15 28.8096 223.026 29.6036C221.912 30.3906 221.017 31.5381 220.313 32.9798L222.109 33.8581ZM226.871 30.4209C227.715 30.4209 228.438 30.5299 229.054 30.7309L229.675 28.8297C228.823 28.5515 227.884 28.4209 226.871 28.4209V30.4209ZM228.372 29.6568L227.721 34.8902L229.705 35.1372L230.357 29.9038L228.372 29.6568ZM228.77 34.0153L225.603 33.8356L225.489 35.8324L228.656 36.0121L228.77 34.0153ZM225.604 33.8357C224.408 33.7664 223.319 33.9964 222.418 34.6169L223.553 36.2639C224 35.9561 224.617 35.7818 225.488 35.8323L225.604 33.8357ZM222.418 34.6169C221.594 35.1847 220.938 35.9591 220.439 36.9057L222.208 37.8385C222.577 37.1379 223.029 36.6245 223.553 36.2639L222.418 34.6169ZM220.323 37.3721V50.04H222.323V37.3721H220.323ZM221.127 51.0206L224.496 51.6944L224.889 49.7333L221.519 49.0595L221.127 51.0206ZM223.692 50.7139V54.1729H225.692V50.7139H223.692ZM224.692 53.1729H212.316V55.1729H224.692V53.1729ZM231.678 54.1729H230.678V55.1729H231.678V54.1729ZM231.678 50.7139L231.482 49.7333L230.678 49.8941V50.7139H231.678ZM235.047 50.04L235.243 51.0206L236.047 50.8598V50.04H235.047ZM235.047 34.0254H236.047V33.1964L235.232 33.0427L235.047 34.0254ZM231.476 33.3516H230.476V34.1805L231.29 34.3342L231.476 33.3516ZM231.476 29.8701V28.8701H230.476V29.8701H231.476ZM240.707 29.8701H241.707V28.8701H240.707V29.8701ZM240.707 50.04H239.707V50.8588L240.51 51.0204L240.707 50.04ZM244.054 50.7139H245.054V49.8951L244.251 49.7335L244.054 50.7139ZM244.054 54.1729V55.1729H245.054V54.1729H244.054ZM234.822 24.3672H233.822V25.3672H234.822V24.3672ZM234.822 19.1338V18.1338H233.822V19.1338H234.822ZM240.707 19.1338H241.707V18.1338H240.707V19.1338ZM240.707 24.3672V25.3672H241.707V24.3672H240.707ZM232.678 54.1729V50.7139H230.678V54.1729H232.678ZM231.874 51.6944L235.243 51.0206L234.851 49.0595L231.482 49.7333L231.874 51.6944ZM236.047 50.04V34.0254H234.047V50.04H236.047ZM235.232 33.0427L231.661 32.3689L231.29 34.3342L234.861 35.0081L235.232 33.0427ZM232.476 33.3516V29.8701H230.476V33.3516H232.476ZM231.476 30.8701H240.707V28.8701H231.476V30.8701ZM239.707 29.8701V50.04H241.707V29.8701H239.707ZM240.51 51.0204L243.856 51.6942L244.251 49.7335L240.904 49.0597L240.51 51.0204ZM243.054 50.7139V54.1729H245.054V50.7139H243.054ZM244.054 53.1729H231.678V55.1729H244.054V53.1729ZM235.822 24.3672V19.1338H233.822V24.3672H235.822ZM234.822 20.1338H240.707V18.1338H234.822V20.1338ZM239.707 19.1338V24.3672H241.707V19.1338H239.707ZM240.707 23.3672H234.822V25.3672H240.707V23.3672ZM251.938 53.0947L251.404 53.9406L251.413 53.9461L251.938 53.0947ZM248.074 48.7822L247.175 49.2207L247.18 49.2294L248.074 48.7822ZM251.915 31.0156L252.448 31.8615L252.45 31.8602L251.915 31.0156ZM263.28 30.4316L262.88 31.348L262.887 31.3512L263.28 30.4316ZM267.076 32.9023L268.076 32.8989L268.075 32.4867L267.783 32.1952L267.076 32.9023ZM267.099 39.3936V40.3936H268.102L268.099 39.3901L267.099 39.3936ZM262.786 39.3936L261.804 39.5837L261.961 40.3936H262.786V39.3936ZM261.955 35.1035L262.937 34.9133L262.88 34.6222L262.674 34.4089L261.955 35.1035ZM260.36 34.0703L259.974 34.9928L259.983 34.9966L259.993 35.0003L260.36 34.0703ZM253.914 35.8896L254.736 36.4597L254.738 36.4558L253.914 35.8896ZM253.914 48.2881L253.119 48.8952L253.124 48.9008L253.914 48.2881ZM262.674 46.3115V45.3115H261.858L261.694 46.1109L262.674 46.3115ZM267.57 46.3115L268.465 45.8643L268.188 45.3115H267.57V46.3115ZM267.638 46.4463L268.631 46.5588L268.665 46.2642L268.532 45.9991L267.638 46.4463ZM264.875 52.3311L264.175 51.6172L264.171 51.6205L264.875 52.3311ZM257.867 53.6445C255.747 53.6445 253.958 53.1651 252.462 52.2433L251.413 53.9461C253.271 55.0908 255.435 55.6445 257.867 55.6445V53.6445ZM252.471 52.2489C250.97 51.3021 249.804 50.0052 248.969 48.335L247.18 49.2294C248.172 51.2129 249.581 52.791 251.404 53.9406L252.471 52.2489ZM248.973 48.3438C248.152 46.6598 247.727 44.6953 247.727 42.4258H245.727C245.727 44.948 246.2 47.221 247.175 49.2206L248.973 48.3438ZM247.727 42.4258V41.6396H245.727V42.4258H247.727ZM247.727 41.6396C247.727 39.4183 248.15 37.4755 248.973 35.789L247.175 34.9122C246.201 36.9093 245.727 39.1592 245.727 41.6396H247.727ZM248.973 35.789C249.794 34.1068 250.951 32.8061 252.448 31.8615L251.382 30.1698C249.555 31.3215 248.152 32.9107 247.175 34.9122L248.973 35.789ZM252.45 31.8602C253.945 30.9128 255.73 30.4209 257.845 30.4209V28.4209C255.407 28.4209 253.239 28.9922 251.38 30.171L252.45 31.8602ZM257.845 30.4209C259.82 30.4209 261.49 30.7408 262.88 31.348L263.681 29.5153C261.986 28.7749 260.032 28.4209 257.845 28.4209V30.4209ZM262.887 31.3512C264.335 31.9698 265.487 32.7275 266.369 33.6095L267.783 32.1952C266.689 31.1006 265.31 30.2112 263.673 29.512L262.887 31.3512ZM266.076 32.9058L266.099 39.397L268.099 39.3901L268.076 32.8989L266.076 32.9058ZM267.099 38.3936H262.786V40.3936H267.099V38.3936ZM263.768 39.2034L262.937 34.9133L260.973 35.2937L261.804 39.5837L263.768 39.2034ZM262.674 34.4089C262.143 33.858 261.485 33.4397 260.728 33.1404L259.993 35.0003C260.523 35.2101 260.929 35.4806 261.236 35.7981L262.674 34.4089ZM260.746 33.1479C259.969 32.8225 259.133 32.666 258.249 32.666V34.666C258.893 34.666 259.464 34.779 259.974 34.9928L260.746 33.1479ZM258.249 32.666C256.064 32.666 254.303 33.5566 253.09 35.3235L254.738 36.4558C255.561 35.2579 256.691 34.666 258.249 34.666V32.666ZM253.092 35.3196C251.926 37.001 251.387 39.1353 251.387 41.6396H253.387C253.387 39.4123 253.866 37.7132 254.736 36.4597L253.092 35.3196ZM251.387 41.6396V42.4258H253.387V41.6396H251.387ZM251.387 42.4258C251.387 45.1098 251.914 47.3168 253.119 48.8952L254.709 47.681C253.878 46.594 253.387 44.8928 253.387 42.4258H251.387ZM253.124 48.9008C254.337 50.4656 255.948 51.2871 257.89 51.2871V49.2871C256.597 49.2871 255.558 48.7759 254.704 47.6754L253.124 48.9008ZM257.89 51.2871C259.368 51.2871 260.669 50.8783 261.706 49.9917L260.407 48.4712C259.797 48.9921 258.986 49.2871 257.89 49.2871V51.2871ZM261.706 49.9917C262.727 49.1195 263.362 47.9342 263.653 46.5122L261.694 46.1109C261.476 47.1745 261.033 47.9358 260.407 48.4712L261.706 49.9917ZM262.674 47.3115H267.57V45.3115H262.674V47.3115ZM266.676 46.7587L266.743 46.8935L268.532 45.9991L268.465 45.8643L266.676 46.7587ZM266.644 46.3338C266.398 48.5079 265.568 50.2502 264.175 51.6172L265.575 53.0449C267.326 51.3273 268.338 49.1464 268.631 46.5588L266.644 46.3338ZM264.171 51.6205C262.868 52.9113 260.83 53.6445 257.867 53.6445V55.6445C261.133 55.6445 263.767 54.8354 265.579 53.0416L264.171 51.6205ZM276.42 53.1172L275.899 53.9707L275.904 53.974L276.42 53.1172ZM272.467 48.8496L271.577 49.3056L271.58 49.3114L272.467 48.8496ZM272.444 35.373L271.55 34.9258L271.548 34.9287L272.444 35.373ZM276.24 31.0156L276.788 31.8525L276.79 31.8512L276.24 31.0156ZM289.268 32.3408L288.516 33.0001L288.519 33.0034L289.268 32.3408ZM291.851 43.5938V44.5938H292.851V43.5938H291.851ZM276.937 43.5938V42.5938H276.259L276.008 43.2224L276.937 43.5938ZM276.892 43.7061L275.963 43.3347L275.883 43.5361L275.893 43.7529L276.892 43.7061ZM278.554 48.4453L277.78 49.0791L277.784 49.0836L278.554 48.4453ZM289.515 48.2207L290.411 47.778L289.892 46.7265L288.936 47.4052L289.515 48.2207ZM291.267 51.7695L291.918 52.528L292.507 52.0224L292.163 51.3269L291.267 51.7695ZM287.605 53.8359L287.95 54.7746L287.956 54.7727L287.605 53.8359ZM277.026 39.6182L276.169 40.1327L276.46 40.6182H277.026V39.6182ZM286.438 39.6182V40.6182H287.438V39.6182H286.438ZM285.314 35.1709L284.512 35.767L284.517 35.7748L285.314 35.1709ZM278.509 35.3506L277.717 34.7403L277.711 34.7471L278.509 35.3506ZM276.959 39.5059L275.966 39.3895L275.926 39.7281L276.101 40.0204L276.959 39.5059ZM282.417 53.6445C280.262 53.6445 278.447 53.1702 276.936 52.2604L275.904 53.974C277.777 55.1007 279.96 55.6445 282.417 55.6445V53.6445ZM276.941 52.2637C275.409 51.3283 274.216 50.0434 273.354 48.3878L271.58 49.3114C272.605 51.2795 274.047 52.8396 275.899 53.9707L276.941 52.2637ZM273.357 48.3936C272.511 46.7424 272.074 44.8288 272.074 42.6279H270.074C270.074 45.099 270.566 47.3331 271.577 49.3056L273.357 48.3936ZM272.074 42.6279V41.6846H270.074V42.6279H272.074ZM272.074 41.6846C272.074 39.4495 272.505 37.5016 273.34 35.8173L271.548 34.9287C270.557 36.9281 270.074 39.1878 270.074 41.6846H272.074ZM273.339 35.8203C274.195 34.108 275.346 32.7957 276.788 31.8525L275.693 30.1788C273.93 31.3319 272.551 32.9245 271.55 34.9258L273.339 35.8203ZM276.79 31.8512C278.231 30.9035 279.887 30.4209 281.788 30.4209V28.4209C279.527 28.4209 277.484 29.0015 275.691 30.18L276.79 31.8512ZM281.788 30.4209C284.862 30.4209 287.047 31.3252 288.516 33.0001L290.019 31.6815C288.074 29.4632 285.273 28.4209 281.788 28.4209V30.4209ZM288.519 33.0034C290.034 34.7169 290.851 37.1276 290.851 40.3594H292.851C292.851 36.793 291.945 33.858 290.017 31.6782L288.519 33.0034ZM290.851 40.3594V43.5938H292.851V40.3594H290.851ZM291.851 42.5938H276.937V44.5938H291.851V42.5938ZM276.008 43.2224L275.963 43.3347L277.82 44.0774L277.865 43.9651L276.008 43.2224ZM275.893 43.7529C275.991 45.8414 276.601 47.6395 277.78 49.0791L279.327 47.8116C278.47 46.7655 277.972 45.404 277.891 43.6592L275.893 43.7529ZM277.784 49.0836C279.028 50.5833 280.787 51.2871 282.911 51.2871V49.2871C281.262 49.2871 280.116 48.763 279.323 47.807L277.784 49.0836ZM282.911 51.2871C284.32 51.2871 285.626 51.095 286.821 50.6967L286.189 48.7994C285.227 49.1198 284.138 49.2871 282.911 49.2871V51.2871ZM286.821 50.6967C287.993 50.3061 289.085 49.7521 290.093 49.0362L288.936 47.4052C288.088 48.0071 287.173 48.4712 286.189 48.7994L286.821 50.6967ZM288.618 48.6634L290.37 52.2122L292.163 51.3269L290.411 47.778L288.618 48.6634ZM290.615 51.0111C289.765 51.7413 288.654 52.3764 287.255 52.8992L287.956 54.7727C289.522 54.1874 290.851 53.4449 291.918 52.528L290.615 51.0111ZM287.261 52.8973C285.929 53.3864 284.322 53.6445 282.417 53.6445V55.6445C284.495 55.6445 286.347 55.3636 287.95 54.7746L287.261 52.8973ZM277.026 40.6182H286.438V38.6182H277.026V40.6182ZM287.438 39.6182V39.0342H285.438V39.6182H287.438ZM287.438 39.0342C287.438 37.2905 287.025 35.7725 286.112 34.567L284.517 35.7748C285.102 36.5458 285.438 37.6034 285.438 39.0342H287.438ZM286.117 34.5748C285.144 33.2636 283.647 32.6885 281.855 32.6885V34.6885C283.208 34.6885 284.018 35.1016 284.512 35.767L286.117 34.5748ZM281.855 32.6885C280.162 32.6885 278.756 33.3909 277.717 34.7404L279.301 35.9608C279.969 35.0941 280.794 34.6885 281.855 34.6885V32.6885ZM277.711 34.7471C276.745 36.0237 276.177 37.5867 275.966 39.3895L277.952 39.6222C278.13 38.1008 278.595 36.8936 279.306 35.954L277.711 34.7471ZM276.101 40.0204L276.169 40.1327L277.884 39.1037L277.816 38.9914L276.101 40.0204Z" fill="#220E9D"/>
</g>
<defs>
<filter id="filter0_d" x="43.8232" y="18.1338" width="253.027" height="45.5107" filterUnits="userSpaceOnUse" color-interpolation-filters="sRGB">
<feFlood flood-opacity="0" result="BackgroundImageFix"/>
<feColorMatrix in="SourceAlpha" type="matrix" values="0 0 0 0 0 0 0 0 0 0 0 0 0 0 0 0 0 0 127 0"/>
<feOffset dy="4"/>
<feGaussianBlur stdDeviation="2"/>
<feColorMatrix type="matrix" values="0 0 0 0 0 0 0 0 0 0 0 0 0 0 0 0 0 0 0.25 0"/>
<feBlend mode="normal" in2="BackgroundImageFix" result="effect1_dropShadow"/>
<feBlend mode="normal" in="SourceGraphic" in2="effect1_dropShadow" result="shape"/>
</filter>
</defs>
</svg>
